<?xml version="1.0" standalone="no"?>
<!DOCTYPE svg PUBLIC "-//W3C//DTD SVG 20010904//EN"
 "http://www.w3.org/TR/2001/REC-SVG-20010904/DTD/svg10.dtd">
<svg version="1.0" xmlns="http://www.w3.org/2000/svg"
 width="260.000000pt" height="260.000000pt" viewBox="0 0 260.000000 260.000000"
 preserveAspectRatio="xMidYMid meet">
<metadata>
Created by potrace 1.11, written by Peter Selinger 2001-2013
</metadata>
<g transform="translate(0.000000,260.000000) scale(0.100000,-0.100000)"
fill="#000000" stroke="none">
<path d="M765 2548 c-3 -7 -6 -47 -7 -88 l-3 -75 -170 -5 -170 -5 -5 -85 -5
-85 -85 -5 -85 -5 -3 -174 -2 -173 -28 6 c-15 4 -48 9 -73 13 -41 5 -49 2 -83
-28 -34 -29 -36 -34 -20 -39 18 -7 19 -31 24 -516 l5 -509 88 -3 87 -3 0 -174
0 -175 90 0 90 0 0 -90 0 -90 175 0 174 0 3 -88 3 -87 530 0 530 0 3 87 3 88
177 2 177 3 3 87 3 87 87 3 87 3 3 172 2 173 85 0 85 0 1 43 c0 23 2 67 3 97
1 30 3 108 4 173 l2 117 26 0 c14 0 23 4 19 10 -3 5 -15 10 -26 10 -18 0 -19
9 -19 198 -1 108 -2 249 -3 312 l-2 115 -87 3 -88 3 -2 172 -3 172 -87 3 -87
3 -3 87 -3 87 -175 5 -175 5 -5 85 -5 85 -528 3 c-417 2 -529 0 -532 -10z"/>
</g>
</svg>
