<svg xmlns="http://www.w3.org/2000/svg" width="800" height="642" viewBox="0 0 800 642">
  <defs>
    <style>
      .cls-1 {
        fill-rule: evenodd;
		fill: #e7e6e3
      }
    </style>
  </defs>
  <path id="verse" class="cls-1" d="M104.914,570.741h26.881l90.221-104.434H198.868l-71.28,83.547L129,467H109m125.71-.693L188.546,570.741h91.1l7.914-17.9H217.367l11.212-25.363h52.269l7.914-17.9H236.493L247.7,484.21h68.7l7.914-17.9h-89.6Zm131.041,70.12,9.473,34.314h24.641l-9.89-35.06,25.5-17.157,15.169-34.314-11.5-17.9H343.731L297.566,570.741h20.908l15.168-34.314h32.109Zm40.692-44.757-8.573,19.394-11.511,7.46h-44.8l15.169-34.314h44.8Zm43.494,35.059h47.79l4.916,7.46L497.7,545.378l-11.512,7.46h-65.71l-7.914,17.9h75.418l27.328-17.9,11.541-26.109-11.5-17.9h-47.79l-4.916-7.46,4.287-9.7,11.511-7.46h61.23l7.914-17.9H476.647l-27.329,17.9-10.881,24.617Zm123.035-60.422L526.808,570.741h91.1l7.914-17.9H555.63l11.211-25.363h52.27l7.914-17.9h-52.27l11.211-25.363h68.7l7.913-17.9H572.972Z"/>
  <path id="NC" class="cls-1" d="M323.227,355.4L245.412,152.168h-57.2L13,630h0L208.429,245.317l77.815,203.235h57.2L494.432,7h0ZM688.9,397.743H517.3l-16.877-25.4,60.43-143.958,38.206-25.4h171.6l21.329-50.809H592.844l-82.425,55.043-78.2,186.3,36.214,55.043H667.572Z"/>
</svg>
